<?xml version="1.0" encoding="utf-8"?>
<!-- Generator: Adobe Illustrator 21.0.2, SVG Export Plug-In . SVG Version: 6.00 Build 0)  -->
<svg version="1.1" id="Capa_1" xmlns="http://www.w3.org/2000/svg" xmlns:xlink="http://www.w3.org/1999/xlink" x="0px" y="0px"
	 viewBox="0 0 443.9 512" style="enable-background:new 0 0 443.9 512;" xml:space="preserve">
<style type="text/css">
	.st0{fill:#8F971F;}
	.st1{fill:#B0BA26;}
	.st2{fill:#FFFFFF;}
</style>
<g>
	<polygon class="st0" points="90.1,512 90.1,355.1 286.3,355.1 	"/>
	<circle class="st0" cx="221.9" cy="221.9" r="221.9"/>
</g>
<g>
	<path class="st1" d="M65,378.9C-21.7,292.2-21.7,151.7,65,65s227.2-86.7,313.9,0L65,378.9z"/>
</g>
<g>
	<g id="google-plus">
		<path class="st2" d="M319.5,204.5v-34.9h-23.2v34.9h-34.9v23.2h34.9v34.9h23.2v-34.9h34.9v-23.2H319.5z M230.1,244l-12.8-9.3
			c-4.6-3.5-9.3-8.1-9.3-16.3c0-8.1,5.8-15.1,11.6-18.6c15.1-11.6,30.2-24.4,30.2-50c0-24.4-15.1-38.3-23.2-45.3h19.8l13.9-16.3h-72
			c-51.1,0-76.7,32.5-76.7,67.4c0,26.7,20.9,55.8,58.1,55.8h9.3c-1.2,3.5-4.6,9.3-4.6,15.1c0,11.6,4.6,16.3,10.5,23.2
			c-16.3,1.2-46.5,4.6-68.5,18.6c-20.9,12.8-26.7,30.2-26.7,43c0,26.7,24.4,52.3,76.7,52.3c62.7,0,92.9-34.9,92.9-68.5
			C259.1,270.7,246.3,257.9,230.1,244z M141.8,138.3c0-25.6,15.1-37.2,31.4-37.2c30.2,0,46.5,40.7,46.5,63.9c0,30.2-24.4,36-33.7,36
			C156.9,201,141.8,165,141.8,138.3z M183.6,347.4c-38.3,0-62.7-17.4-62.7-43c0-25.6,23.2-33.7,30.2-37.2
			c15.1-4.6,34.9-5.8,38.3-5.8s5.8,0,8.1,0c27.9,19.8,39.5,27.9,39.5,46.5C237.1,330,215,347.4,183.6,347.4z"/>
	</g>
</g>
</svg>
