<?xml version="1.0" encoding="utf-8"?>
<!-- Generator: Adobe Illustrator 21.0.2, SVG Export Plug-In . SVG Version: 6.00 Build 0)  -->
<svg version="1.1" id="Capa_1" xmlns="http://www.w3.org/2000/svg" xmlns:xlink="http://www.w3.org/1999/xlink" x="0px" y="0px"
	 viewBox="0 0 443.9 512" style="enable-background:new 0 0 443.9 512;" xml:space="preserve">
<style type="text/css">
	.st0{fill:#D16A11;}
	.st1{fill:#FF8400;}
	.st2{fill:#FFFFFF;}
</style>
<g>
	<polygon class="st0" points="90.1,512 90.1,355.1 286.3,355.1 	"/>
	<circle class="st0" cx="221.9" cy="221.9" r="221.9"/>
</g>
<g>
	<path class="st1" d="M65,378.9C-21.7,292.2-21.7,151.7,65,65s227.2-86.7,313.9,0L65,378.9z"/>
</g>
<path class="st2" d="M255.5,112.9c-24,8.7-39.1,31.3-37.4,56l0.6,9.5l-9.6-1.2c-34.9-4.5-65.4-19.6-91.3-45.1l-12.7-12.6l-3.3,9.3
	c-6.9,20.8-2.5,42.7,11.9,57.5c7.7,8.2,5.9,9.3-7.3,4.5c-4.6-1.5-8.6-2.7-9-2.1c-1.3,1.4,3.3,19,6.9,26c5,9.7,15.1,19.2,26.3,24.9
	l9.4,4.5l-11.1,0.2c-10.7,0-11.1,0.2-10,4.3c3.8,12.6,19,26,35.9,31.9l11.9,4.1l-10.3,6.2c-15.3,9-33.4,14-51.4,14.4
	c-8.6,0.2-15.7,1-15.7,1.6c0,1.9,23.4,12.8,37,17.1c40.8,12.6,89.4,7.2,125.8-14.4c25.9-15.4,51.8-45.8,63.9-75.4
	c6.5-15.7,13-44.5,13-58.3c0-8.9,0.6-10.1,11.3-20.8c6.3-6.2,12.3-13,13.4-15c1.9-3.7,1.7-3.7-8.1-0.4c-16.3,5.8-18.6,5-10.5-3.7
	c5.9-6.2,13-17.5,13-20.8c0-0.6-2.9,0.4-6.1,2.1c-3.4,1.9-11.1,4.9-16.9,6.6l-10.3,3.3l-9.4-6.4c-5.2-3.5-12.5-7.4-16.3-8.6
	C279.3,109.4,264.3,109.8,255.5,112.9z"/>
</svg>
