<?xml version="1.0" encoding="utf-8"?>
<!-- Generator: Adobe Illustrator 21.0.2, SVG Export Plug-In . SVG Version: 6.00 Build 0)  -->
<svg version="1.1" id="Capa_1" xmlns="http://www.w3.org/2000/svg" xmlns:xlink="http://www.w3.org/1999/xlink" x="0px" y="0px"
	 viewBox="0 0 443.9 512" style="enable-background:new 0 0 443.9 512;" xml:space="preserve">
<style type="text/css">
	.st0{fill:#ED6A00;}
	.st1{fill:#FF8400;}
	.st2{fill:#FFFFFF;}
</style>
<g>
	<polygon class="st0" points="90.2,512 90.2,355.1 286.3,355.1 	"/>
	<circle class="st0" cx="221.9" cy="221.9" r="221.9"/>
</g>
<g>
	<path class="st1" d="M65,378.9C-21.7,292.2-21.7,151.7,65,65s227.2-86.7,313.9,0L65,378.9z"/>
</g>
<g>
	<g>
		<path class="st2" d="M326.8,216.3c-2.7-11.6-12.1-20.1-23.5-21.3c-26.9-3-54.2-3-81.3-3c-27.1,0-54.4,0-81.4,3
			c-11.4,1.3-20.8,9.8-23.5,21.3c-3.8,16.5-3.8,34.4-3.8,51.4s0,34.9,3.8,51.3c2.7,11.6,12.1,20.1,23.5,21.3c26.9,3,54.2,3,81.3,3
			c27.1,0,54.4,0,81.3-3c11.4-1.3,20.8-9.8,23.5-21.3c3.8-16.5,3.8-34.4,3.8-51.3C330.6,250.7,330.6,232.7,326.8,216.3z M175.3,229
			h-15.7v83.5H145V229h-15.4v-13.7h45.8V229z M215,312.6h-13.1v-7.9c-5.2,6-10.2,8.9-15,8.9c-4.2,0-7.1-1.7-8.5-5.4
			c-0.7-2.2-1.2-5.7-1.2-10.8v-57.3h13.1v53.3c0,3.1,0,4.7,0.1,5.1c0.3,2,1.3,3.1,3.1,3.1c2.6,0,5.4-2,8.3-6.1v-55.4H215L215,312.6
			L215,312.6z M264.8,290.8c0,6.7-0.5,11.5-1.3,14.6c-1.8,5.4-5.3,8.1-10.5,8.1c-4.7,0-9.2-2.6-13.6-8v7h-13.1v-97.2h13.1v31.8
			c4.2-5.2,8.7-7.9,13.6-7.9c5.2,0,8.7,2.7,10.5,8.2c0.9,2.9,1.3,7.7,1.3,14.6V290.8z M314.4,278.7h-26.3v12.8
			c0,6.7,2.2,10.1,6.7,10.1c3.2,0,5.1-1.8,5.9-5.3c0.1-0.7,0.3-3.6,0.3-8.9h13.4v1.9c0,4.2-0.2,7.1-0.3,8.5
			c-0.4,2.9-1.5,5.5-3.1,7.9c-3.6,5.3-9,7.9-15.9,7.9c-6.9,0-12.1-2.5-15.9-7.4c-2.8-3.6-4.2-9.3-4.2-17v-25.4
			c0-7.7,1.3-13.4,4.1-17.1c3.8-5,9-7.4,15.7-7.4c6.6,0,11.8,2.5,15.5,7.4c2.7,3.7,4.1,9.3,4.1,17.1L314.4,278.7L314.4,278.7z"/>
		<path class="st2" d="M294.7,251.1c-4.4,0-6.6,3.4-6.6,10v6.7h13.1v-6.7C301.2,254.4,299.1,251.1,294.7,251.1z"/>
		<path class="st2" d="M246,251.1c-2.2,0-4.4,1-6.5,3.2v44.2c2.2,2.2,4.4,3.2,6.5,3.2c3.8,0,5.7-3.2,5.7-9.8v-30.9
			C251.7,254.4,249.8,251.1,246,251.1z"/>
		<path class="st2" d="M253.3,185.3c4.8,0,9.9-2.9,15.2-9v8h13.3V111h-13.3v56c-2.9,4.2-5.7,6.2-8.4,6.2c-1.8,0-2.8-1.1-3.1-3.1
			c-0.2-0.4-0.2-2-0.2-5.2V111h-13.2v57.9c0,5.2,0.4,8.7,1.2,10.9C246.1,183.5,249.1,185.3,253.3,185.3z"/>
		<path class="st2" d="M161,144.5v39.8h14.7v-39.8L193.4,86h-14.9l-10,38.6L158,86h-15.5c3.1,9.1,6.3,18.3,9.4,27.4
			C156.7,127.1,159.6,137.4,161,144.5z"/>
		<path class="st2" d="M213.1,185.3c6.6,0,11.8-2.5,15.5-7.5c2.8-3.7,4.1-9.4,4.1-17.2v-25.6c0-7.8-1.3-13.5-4.1-17.2
			c-3.7-5-8.8-7.5-15.5-7.5c-6.6,0-11.8,2.5-15.4,7.5c-2.8,3.7-4.2,9.4-4.2,17.2v25.6c0,7.8,1.3,13.6,4.2,17.2
			C201.3,182.8,206.5,185.3,213.1,185.3z M206.8,132.2c0-6.8,2.1-10.2,6.3-10.2s6.3,3.4,6.3,10.2V163c0,6.8-2,10.2-6.3,10.2
			s-6.3-3.4-6.3-10.2V132.2z"/>
	</g>
</g>
</svg>
