<?xml version="1.0" encoding="utf-8"?>
<!-- Generator: Adobe Illustrator 21.0.2, SVG Export Plug-In . SVG Version: 6.00 Build 0)  -->
<svg version="1.1" id="Capa_1" xmlns="http://www.w3.org/2000/svg" xmlns:xlink="http://www.w3.org/1999/xlink" x="0px" y="0px"
	 viewBox="0 0 512 512" style="enable-background:new 0 0 512 512;" xml:space="preserve">
<style type="text/css">
	.st0{fill:#D0D8E4;}
	.st1{fill:#5F247A;}
	.st2{fill:#8F971F;}
	.st3{fill:#B0BA26;}
</style>
<path class="st0" d="M512,358.4c0-8.4-6.6-15-15-15H15c-8.4,0-15,6.6-15,15v30c0,24.9,20.1,45,45,45h422c24.9,0,45-20.1,45-45V358.4
	z"/>
<path class="st1" d="M509.9,296c0-0.6,0-1.2-0.3-1.8v-0.3c-0.9-3.6-2.1-7.2-3.3-10.5H288c-106.5-42.5-88.4-35.3-109.8-43.8
	c-7.5-3-15.6,0-19.2,7.2l-48.3,96.6l-4.2,8.4c-5.1,11,3.2,21.6,13.5,21.6h392v-61.8C512,306.2,511.4,301.1,509.9,296z"/>
<path class="st2" d="M199.2,101.6l-10.5-10.5c-12.6-12-30.9-15.9-47.7-9.3l-112.5,45C11.4,133.7,0,150.5,0,168.8v39.6
	c0,5.1,2.7,9.9,7.2,12.9c7.9,4.9,14.7,0.5,22.8-3.6l73.8-36.9c2.7-1.5,5.7-2.4,8.4-3.3c10.2,0,7.7-3.7,21.9,0
	c5.1,1.5,10.8,0,14.4-3.9l50.7-51C205.2,116.9,205.2,107.3,199.2,101.6z"/>
<path class="st1" d="M164.7,231.2h1.2v-0.3C165.6,231.2,165,231.2,164.7,231.2z M164.7,231.2h1.2v-0.3
	C165.6,231.2,165,231.2,164.7,231.2z M196.5,210.5v-0.3c-1.9-9.3-2.7-16.9-12.3-19.2c-5.1-1.5-10.8,0-14.4,3.9l-3,3
	c-14.3,13.6-35-6.9-21.3-21.3c5.1-5.1,9.3-9.2,6.9-17.4c-2.3-9.6-9.9-10.4-19.2-12.3h-0.3c-14.4-1.8-28.8,0.6-42.3,6.9
	c-13.8,6.9-78.1,38.9-90.6,45.5v174.1h129.1c6.6-12.5,43.8-87.1,50.6-100.8v-0.3c3.6-7.1,10.6-20.1,12.9-27c0-0.3,0-0.3,0.3-0.6
	c0.5-1.6,3.7-11.4,3-12.9C197.6,224.3,197.2,217.8,196.5,210.5z M164.7,231.2h1.2v-0.3C165.6,231.2,165,231.2,164.7,231.2z"/>
<path class="st2" d="M509.6,294.2v-0.3c-0.9-3.6-2.1-7.2-3.3-10.5H506c-8.1-20.1-24.6-36-46.2-43.2l-79.1-21
	c-6.3-1.8-23.2-6.1-28.8-8.7c-8.4-2.4-16.2-5.4-24-9c-9.3-3.1-21.2-9.3-27-13.2c-6-2.7-11.7-6.3-17.4-10.5
	c-8.2-4.4-18.5-12.7-24.9-18.3c-2.1-1.5-3.9-3.3-6-5.1c-3.6-3.3-7.2-6.6-10.8-10.2c-5.7-6-15.3-6-21,0l-51,50.7
	c-3.9,3.6-5.4,9.3-3.9,14.4c3.7,14.2,0,11.7,0,21.9c-0.9,3-1.8,5.7-3.3,8.4l-3.6,7.2c-3.8,7.6-0.5,17.2,7.8,20.4
	c3.7,1.5,114.2,46.2,118.2,46.2h210.2c9.5,0,16.7-8.9,14.7-17.4C509.9,295.4,509.9,294.8,509.6,294.2z"/>
<path class="st0" d="M283.5,177.8c-14,35.4-10.6,26.8-18.6,46.5c-7,17.6-35.4,8.3-27.9-11.1c11.9-29.6,7.5-18.8,21.6-53.7
	C265,165.1,275.3,173.3,283.5,177.8z"/>
<path class="st0" d="M327.9,201.5c-13.1,33.3-9.7,24.8-16.5,41.4c-7.4,18.6-35.1,7.6-27.9-11.1c8.8-22.1,3.6-9,17.4-43.5
	C306.7,192.2,318.6,198.4,327.9,201.5z"/>
<path class="st0" d="M380.7,219.2c-13.6,34.3-10.6,26.8-17.7,44.4c-7.4,18.4-35,7.4-27.9-11.1c4.8-11.6,2.8-6.5,16.8-42
	C357.5,213.1,374.4,217.4,380.7,219.2z"/>
<path class="st3" d="M256.8,129.2l-42.6-42.6c-5.7-6-15.3-6-21,0l-4.5,4.5l-55.5,55.8h-0.3l-8.4,8.7c-6.3,6.3-10.2,13.8-12,21.9
	c-4.1,4.1-2.3,27.5,12,41.4c8.7,9,20.1,13.2,31.5,13.2c1,0,9.2-0.5,9.9-1.2c8.1-1.5,15.6-5.7,21.9-12l8.7-8.4v-0.3l56.1-55.8
	l4.2-4.2C262.8,144.5,262.8,134.9,256.8,129.2z"/>
</svg>
