<?xml version="1.0" encoding="utf-8"?>
<!-- Generator: Adobe Illustrator 21.0.2, SVG Export Plug-In . SVG Version: 6.00 Build 0)  -->
<svg version="1.1" id="Layer_1" xmlns="http://www.w3.org/2000/svg" xmlns:xlink="http://www.w3.org/1999/xlink" x="0px" y="0px"
	 viewBox="0 0 460 460" style="enable-background:new 0 0 460 460;" xml:space="preserve">
<style type="text/css">
	.st0{fill:#FF8400;}
	.st1{fill:#FFFFFF;}
</style>
<ellipse transform="matrix(0.7071 -0.7071 0.7071 0.7071 -95.2717 229.9997)" class="st0" cx="230" cy="230" rx="272.1" ry="178.2"/>
<polygon class="st1" points="299,231 313.1,216.9 285.2,189 304,170.2 289.8,156 271,174.8 245.2,149 231.1,163.1 256.9,189 
	230,215.9 204.2,190 190,204.2 215.9,230 189,256.9 163.1,231.1 149,245.2 174.8,271 156,289.8 170.2,304 189,285.2 216.9,313.1 
	231,299 203.1,271 230,244.1 257.9,272.1 272.1,257.9 244.1,230 271,203.1 "/>
<path class="st1" d="M251,11.7L448.3,209c5-15.8,8.4-31.4,10.2-46.5l-161-161C282.4,3.3,266.8,6.7,251,11.7z"/>
<path class="st1" d="M1.5,297.5l161,161c15.1-1.8,30.7-5.2,46.5-10.2L11.7,251C6.7,266.8,3.3,282.4,1.5,297.5z"/>
</svg>
