<?xml version="1.0" encoding="utf-8"?>
<!-- Generator: Adobe Illustrator 21.0.2, SVG Export Plug-In . SVG Version: 6.00 Build 0)  -->
<svg version="1.1" id="Layer_1" xmlns="http://www.w3.org/2000/svg" xmlns:xlink="http://www.w3.org/1999/xlink" x="0px" y="0px"
	 viewBox="0 0 467.1 467.1" style="enable-background:new 0 0 467.1 467.1;" xml:space="preserve">
<style type="text/css">
	.st0{fill:#6D1F7D;}
	.st1{opacity:0.3;fill:#5B5B5F;enable-background:new    ;}
	.st2{fill:#5F95DD;}
	.st3{fill:#B0BA26;}
	.st4{display:none;opacity:0.3;fill:#5B5B5F;enable-background:new    ;}
</style>
<polygon class="st0" points="240.7,443.8 219.8,368.5 204.8,368.5 183.9,443.8 134.9,443.8 134.9,467.1 289.8,467.1 289.8,443.8 "/>
<polygon class="st1" points="289.8,443.8 240.7,443.8 219.8,368.5 212.3,368.5 212.3,467.1 289.8,467.1 "/>
<circle class="st2" cx="212.3" cy="166.2" r="159.1"/>
<path class="st3" d="M258.3,50.3c-1.1,1.4-2.2,2.9-2.5,4.7c-0.5,2.9,1.5,5.6,3.3,7.9c2.7,3.5,5.8,7.3,10.1,8.4
	c8.1,2,15.3-6.1,23.6-6.7c6.7-0.5,12.9,3.8,19.5,4c7.6,0.3,11.5-6.9,13-14.4c-12.2-12.3-26.3-22.6-42-30.4
	C277.3,31.7,264.4,42.4,258.3,50.3z"/>
<path class="st3" d="M364.2,118.4c-2.9,9-11.2,6.6-21.9,7.4c-13.8,1.1-22.1-5.7-34.8-8.2c-11.8-2.3-22.2,5.8-27.7,15.6
	c-4.1,7.3-10.5,23.3-5.1,30.8c2.6,3.5,6.4,5.9,10.2,8.1c5.4,3.2,10.9,6.5,16.7,8.9c6.7,2.7,14.4,4.6,18.7,10.4
	c3.5,4.8,3.8,11.3,3.2,17.2c-1.7,16.1-15.7,30.4-2.9,45.1c4.8,5.5,11.4,8.6,18.7,8.6c20.2-26.7,32.3-60,32.3-96.1
	C371.5,149.6,368.9,133.5,364.2,118.4z"/>
<path class="st3" d="M219.7,39.5c5.8,2.6,13,0.2,17-4.8c4-4.9,7.7-18.3,6.7-24.5c-10.1-2-20.5-3.1-31.2-3.1c-2.8,0-5.6,0.1-8.4,0.2
	c1.9,5.8,5.3,10.9,6.3,17C211.2,30.4,214.1,36.9,219.7,39.5z"/>
<path class="st3" d="M87,122.6c7.7,8.1,16.3,15.6,25.4,22.1c2.5,1.8,5.2,3.7,6.2,6.6c2.9,8.5-2.1,17.7,3,27.3
	c4.8,9.1,15.4,14.9,18.1,24.8c2.1,7.8-1.1,16.2,0.7,24c2.2,9.5,11.4,15.9,14.7,25.1c2.1,5.8,1.7,12.3,3.2,18.3s6.4,12.2,12.6,11.6
	c7.5-0.7,10.6-9.9,11.1-17.4c0.6-7.5,1.4-16.5,8.1-19.9c3.6-1.8,8.2-1.5,11-4.4c4.6-4.7,0-12.5,0.1-19.2c0.2-7.1,6-12.5,11.4-17.1
	c6.8-5.8,13.6-11.6,20.3-17.4c4.7-4,5.9-11.1,4-17c-1.9-5.9-6.5-10.5-11.6-13.9c-5.5-3.7-12.6-6.1-18.7-3.6
	c-4.7,1.9-8.3,6.6-13.3,6.9c-4.6,0.3-8.7-3.4-10.9-7.5c-2.2-4.1-3.3-8.7-5.5-12.8c-6.5-11.7-17-11-28.3-12.7
	c-11.4-1.8-23-7.1-31.6-14.9c-1.4-1.3-2.7-2.6-3.3-4.4c-3-9.9,14.5-14.3,20.6-14.1c5,0.2,10,1.6,14.8,0.3c4.5-1.3,8-4.8,11.8-7.5
	c10.9-7.6,26.8,2.8,28.9-17.9c0.8-8.1-2.3-16-5.4-23.5c-4.5-10.9-8.5-21.3-11.4-32.5C127.8,23.4,90.3,54.3,69.9,95.2
	c5.4,5.9,3.8,3.1,6.1,10.8C77.9,112.4,82.4,117.7,87,122.6z"/>
<path class="st0" d="M366.8,25.9l11.8-11.8L364.4,0L327,37.3l14.1,14.1l11.4-11.4c31.3,34.7,48.4,79.1,48.4,126.1
	c0,50.4-19.6,97.8-55.3,133.4c-71.2,71.2-185.6,73.5-259.6,6.9l11.4-11.4L83.4,281l-37.3,37.3l14.1,14.1L72,320.7
	c39.7,36.1,90,54.1,140.3,54.1c53.4,0,106.9-20.3,147.5-61C399.3,274.4,421,222,421,166.2C421,113.8,401.8,64.4,366.8,25.9z"/>
<path class="st4" d="M324.8,53.7L99.8,278.8c62.2,62.2,162.9,62.2,225.1,0S387,115.8,324.8,53.7z"/>
</svg>
