<?xml version="1.0" encoding="iso-8859-1"?>
<!-- Generator: Adobe Illustrator 19.0.0, SVG Export Plug-In . SVG Version: 6.00 Build 0)  -->
<svg version="1.1" id="Layer_1" xmlns="http://www.w3.org/2000/svg" xmlns:xlink="http://www.w3.org/1999/xlink" x="0px" y="0px"
	 viewBox="0 0 512 512" style="enable-background:new 0 0 512 512;" xml:space="preserve">
<path style="fill:#3C4A5E;" d="M419.855,39.931v426.621c0,22.013-17.907,39.921-39.921,39.921h-21.859
	c-4.271,0-7.719-3.448-7.719-7.719h-88.29c0,4.271-3.458,7.719-7.719,7.719H132.076c-22.024,0-39.931-17.907-39.931-39.921V39.931
	C92.145,17.917,110.052,0,132.076,0h247.859C401.947,0,419.855,17.917,419.855,39.931z"/>
<path style="fill:#2A3644;" d="M335.455,498.754h-73.388c0,4.271-3.458,7.719-7.719,7.719H132.076
	c-22.024,0-39.931-17.907-39.931-39.921V39.931C92.145,17.917,110.052,0,132.076,0h28.003
	C157.011,70.476,152.792,400.769,335.455,498.754z"/>
<rect x="99.868" y="78.338" style="fill:#D2F2FF;" width="312.273" height="348.694"/>
<path d="M284.14,49.646h-56.277c-4.263,0-7.719-3.456-7.719-7.719s3.456-7.719,7.719-7.719h56.277c4.263,0,7.719,3.456,7.719,7.719
	S288.403,49.646,284.14,49.646z"/>
<path style="fill:#F2DDC2;" d="M254.346,512V312.274c0-28.643,23.22-51.863,51.863-51.863l0,0c28.643,0,51.863,23.22,51.863,51.863
	V512"/>
<path style="fill:#DDC7AF;" d="M316.149,261.374c-3.218-0.625-6.539-0.962-9.94-0.962l0,0c-28.643,0-51.863,23.22-51.863,51.863V512
	h28.694V312.274C283.04,287.032,297.284,266.012,316.149,261.374z"/>
<path style="fill:#FFFFFF;" d="M278.623,315.735v-2.834c0-15.433,12.629-28.47,28.06-28.21
	c14.994,0.253,27.113,12.529,27.113,27.582v3.461c0,6.621-5.367,11.987-11.987,11.987h-31.198
	C283.989,327.723,278.623,322.356,278.623,315.735z"/>
<g>
	<path style="fill:#DDC7AF;" d="M323.864,383.441h-35.311c-4.263,0-7.719-3.456-7.719-7.719c0-4.263,3.456-7.719,7.719-7.719h35.311
		c4.263,0,7.719,3.456,7.719,7.719C331.582,379.986,328.126,383.441,323.864,383.441z"/>
	<path style="fill:#DDC7AF;" d="M323.864,406.615h-35.311c-4.263,0-7.719-3.456-7.719-7.719c0-4.263,3.456-7.719,7.719-7.719h35.311
		c4.263,0,7.719,3.456,7.719,7.719C331.582,403.159,328.126,406.615,323.864,406.615z"/>
</g>
<path style="fill:#BBDFEA;" d="M254.554,427.033H99.863V78.338h60.009C163.135,175.191,180.938,327.422,254.554,427.033z"/>
<g>
	<path style="fill:#FFFFFF;" d="M234.787,362.214c-2.628,0-5.189-1.342-6.635-3.763c-8.462-14.172-12.934-30.432-12.934-47.022
		c0-50.644,41.203-91.847,91.847-91.847s91.847,41.203,91.847,91.847c0,12.396-2.43,24.426-7.22,35.753
		c-1.661,3.926-6.189,5.762-10.116,4.102c-3.926-1.661-5.762-6.189-4.102-10.115c3.983-9.415,6.002-19.421,6.002-29.739
		c0-42.132-34.278-76.41-76.41-76.41s-76.41,34.278-76.41,76.41c0,13.804,3.718,27.327,10.751,39.107
		c2.186,3.66,0.99,8.399-2.671,10.584C237.497,361.862,236.133,362.214,234.787,362.214z"/>
	<path style="fill:#FFFFFF;" d="M237.367,417.346c-1.547,0-3.109-0.463-4.466-1.428c-33.787-24.022-53.958-63.083-53.958-104.487
		c0-70.647,57.476-128.122,128.122-128.122c35.496,0,68.506,14.185,92.949,39.942c2.934,3.092,2.806,7.978-0.286,10.912
		c-3.093,2.935-7.977,2.806-10.912-0.286c-21.499-22.655-50.532-35.131-81.752-35.131c-62.135,0-112.685,50.551-112.685,112.685
		c0,36.416,17.745,70.773,47.467,91.906c3.473,2.47,4.288,7.289,1.817,10.763C242.159,416.216,239.781,417.346,237.367,417.346z"/>
</g>
<g>
</g>
<g>
</g>
<g>
</g>
<g>
</g>
<g>
</g>
<g>
</g>
<g>
</g>
<g>
</g>
<g>
</g>
<g>
</g>
<g>
</g>
<g>
</g>
<g>
</g>
<g>
</g>
<g>
</g>
</svg>
