<?xml version="1.0" encoding="iso-8859-1"?>
<!-- Generator: Adobe Illustrator 19.0.0, SVG Export Plug-In . SVG Version: 6.00 Build 0)  -->
<svg version="1.1" id="Layer_1" xmlns="http://www.w3.org/2000/svg" xmlns:xlink="http://www.w3.org/1999/xlink" x="0px" y="0px"
	 viewBox="0 0 512 512" style="enable-background:new 0 0 512 512;" xml:space="preserve">
<path style="fill:#E667A8;" d="M452,331h-15c-8.291,0-15-6.709-15-15s6.709-15,15-15h15c16.538,0,30-13.462,30-30
	c0-8.013-3.12-15.542-8.789-21.211c-5.859-5.859-5.859-15.352,0-21.211s15.352-5.859,21.211,0C505.76,239.916,512,254.975,512,271
	C512,304.091,485.091,331,452,331z"/>
<path style="fill:#FFB3D9;" d="M286,150h-75c-9.3,0-18.6,0.899-29.099,2.999C162.1,131.999,133.801,120,105,120
	c-8.401,0-15,6.599-15,15v68.5c-17.999,19.2-31.199,42.299-38.401,67.5H45c-24.901,0-45,20.099-45,45v30c0,24.899,20.099,45,45,45
	c0,0,10.201,0,17.999,0c10.201,20.099,24.6,38.8,42.001,53.2c0,20.099,0,52.8,0,52.8c0,8.399,6.599,15,15,15h61
	c8.401,0,15-6.601,15-15v-15.601c5.099,0.3,9.901,0.601,15,0.601h75v15c0,8.399,6.599,15,15,15h60c8.401,0,15-6.601,15-15v-41.7
	c46.5-30.3,76-83.5,76-139.3C452,225.099,376.901,150,286,150z"/>
<path style="fill:#FF99CC;" d="M452,316c0,55.8-29.5,108.999-76,139.3V497c0,8.399-6.599,15-15,15h-60c-8.401,0-15-6.601-15-15v-15
	h-30V150h30C376.901,150,452,225.099,452,316z"/>
<path style="fill:#5C5F66;" d="M119.854,301.293c-8.291,0-15.161-6.855-15.161-15.146S111.562,271,119.854,271
	S135,277.855,135,286.146S128.145,301.293,119.854,301.293z M134.692,286.146h0.293H134.692z M119.854,286.146h0.293H119.854z"/>
<path style="fill:#F9BC35;" d="M256,150c-41.353,0-75-33.647-75-75s33.647-75,75-75s75,33.647,75,75S297.353,150,256,150z"/>
<path style="fill:#5C5F66;" d="M316,241H196c-8.291,0-15-6.709-15-15s6.709-15,15-15h120c8.291,0,15,6.709,15,15
	S324.291,241,316,241z"/>
<path style="fill:#53565C;" d="M316,211h-60v30h60c8.291,0,15-6.709,15-15S324.291,211,316,211z"/>
<path style="fill:#F39E31;" d="M331,75c0-41.353-33.647-75-75-75v150C297.353,150,331,116.353,331,75z"/>
<g>
</g>
<g>
</g>
<g>
</g>
<g>
</g>
<g>
</g>
<g>
</g>
<g>
</g>
<g>
</g>
<g>
</g>
<g>
</g>
<g>
</g>
<g>
</g>
<g>
</g>
<g>
</g>
<g>
</g>
</svg>
