<?xml version="1.0" encoding="utf-8"?>
<!-- Generator: Adobe Illustrator 21.0.2, SVG Export Plug-In . SVG Version: 6.00 Build 0)  -->
<svg version="1.1" id="Capa_1" xmlns="http://www.w3.org/2000/svg" xmlns:xlink="http://www.w3.org/1999/xlink" x="0px" y="0px"
	 viewBox="0 0 443.9 512" style="enable-background:new 0 0 443.9 512;" xml:space="preserve">
<style type="text/css">
	.st0{fill:#8F971F;}
	.st1{fill:#B0BA26;}
	.st2{fill:#FFFFFF;}
</style>
<g>
	<polygon class="st0" points="90.1,512 90.1,355.1 286.3,355.1 	"/>
	<circle class="st0" cx="221.9" cy="221.9" r="221.9"/>
</g>
<g>
	<path class="st1" d="M65,378.9C-21.7,292.2-21.7,151.7,65,65s227.2-86.7,313.9,0L65,378.9z"/>
</g>
<path class="st2" d="M334.2,262.9c10.3,10.1,21.2,19.6,30.5,30.7c4.1,4.9,8,10,10.9,15.7c4.2,8.1,0.4,17.1-6.9,17.6l-45.4,0
	c-11.7,1-21-3.7-28.9-11.7c-6.3-6.4-12.1-13.2-18.1-19.8c-2.5-2.7-5.1-5.2-8.2-7.3c-6.2-4-11.6-2.8-15.1,3.7
	c-3.6,6.6-4.4,13.8-4.8,21.2c-0.5,10.7-3.7,13.5-14.4,14c-22.9,1.1-44.7-2.4-64.9-14c-17.8-10.2-31.6-24.6-43.7-40.9
	c-23.4-31.7-41.3-66.6-57.5-102.4c-3.6-8.1-1-12.4,7.9-12.6c14.8-0.3,29.6-0.3,44.4,0c6,0.1,10,3.5,12.3,9.2
	c8,19.7,17.8,38.4,30.1,55.8c3.3,4.6,6.6,9.2,11.4,12.5c5.3,3.6,9.3,2.4,11.7-3.5c1.6-3.7,2.3-7.7,2.6-11.7
	c1.2-13.7,1.3-27.4-0.7-41c-1.3-8.5-6.1-14-14.6-15.6c-4.3-0.8-3.7-2.4-1.6-4.9c3.6-4.3,7.1-6.9,13.9-6.9h51.3
	c8.1,1.6,9.9,5.2,11,13.3l0,56.9c-0.1,3.1,1.6,12.5,7.2,14.5c4.5,1.5,7.5-2.1,10.2-5c12.3-13,21-28.4,28.9-44.4
	c3.5-7,6.5-14.3,9.4-21.6c2.1-5.4,5.5-8.1,11.6-7.9l49.3,0c1.5,0,2.9,0,4.4,0.3c8.3,1.4,10.6,5,8,13.1c-4,12.7-11.9,23.3-19.6,34
	c-8.2,11.4-17,22.4-25.2,33.8C324.3,248.6,324.9,253.9,334.2,262.9L334.2,262.9z"/>
</svg>
